<svg xmlns="http://www.w3.org/2000/svg" width="211" height="126.275" viewBox="0 0 211 126.275">
  <g id="Group_4395" data-name="Group 4395" transform="translate(8993 12249.242)">
    <text id="SFAJ" transform="translate(-8993 -12158)" fill="#707070" font-size="81" font-family="Poppins-Regular, Poppins" letter-spacing="0.1em"><tspan x="0" y="0">SFAJ</tspan></text>
    <path id="Path_1577" data-name="Path 1577" d="M-8913.838-12223l.96-1.264,1.09-1.091,1.265-1.134,1.613-1,1.919-1.352,1.395-.479,1.919-.959,2.616-1.091,1.439-.392,14.607-.175,2.572.566,2.059.437,1.769.654,1.769.6,1.425.616,1.516.609,1.365.592,1.016.548,1.462.671,1.463.975,1.544,1.158s1.138.711,1.2.771,1.1.771,1.1.771l23.789-.771-.785-1.93-1.274-2.193-1.471-1.817-1.862-1.688-3.235-3.419-2.746-2.451-4.313-2.941-4.02-2.646-6.863-2.941-5.785-2.06-3.519-.686s-4.815-.588-5.109-.687-17.666,0-17.666,0l-4.056.687-3.313,1.078-4.8,1.667-4.483,1.568-3.138,2.157-3.431,2.059-3.53,2.647-2.353,2.549-2.354,3.027-1.961,2.441-1.372,3.649-.98,1.93v.743Z" fill="#cecece"/>
    <path id="Path_1578" data-name="Path 1578" d="M-8913.838-12223l.96-1.264,1.09-1.091,1.265-1.134,1.613-1,1.919-1.352,1.395-.479,1.919-.959,2.616-1.091,1.439-.392,14.607-.175,2.572.566,2.059.437,1.769.654,1.769.6,1.425.616,1.516.609,1.365.592,1.016.548,1.462.671,1.463.975,1.544,1.158s1.138.711,1.2.771,1.1.771,1.1.771l23.789-.771-.785-1.93-1.274-2.193-1.471-1.817-1.862-1.688-3.235-3.419-2.746-2.451-4.313-2.941-4.02-2.646-6.863-2.941-5.785-2.06-3.519-.686s-4.815-.588-5.109-.687-17.666,0-17.666,0l-4.056.687-3.313,1.078-4.8,1.667-4.483,1.568-3.138,2.157-3.431,2.059-3.53,2.647-2.353,2.549-2.354,3.027-1.961,2.441-1.372,3.649-.98,1.93v.743Z" transform="translate(-17776.363 -24372.209) rotate(180)" fill="#cecece"/>
  </g>
</svg>
